<?xml version="1.0" encoding="utf-8"?>
<!-- Generator: Adobe Illustrator 15.1.0, SVG Export Plug-In . SVG Version: 6.00 Build 0)  -->
<!DOCTYPE svg PUBLIC "-//W3C//DTD SVG 1.1//EN" "http://www.w3.org/Graphics/SVG/1.1/DTD/svg11.dtd">
<svg version="1.1" id="Layer_1" xmlns="http://www.w3.org/2000/svg" xmlns:xlink="http://www.w3.org/1999/xlink" x="0px" y="0px"
	 width="100px" height="100px" viewBox="0 0 100 100" enable-background="new 0 0 100 100" xml:space="preserve">
<rect id="Github_3_" fill="#231F20" width="100" height="100"/>
<path id="Github_2_" fill="#FFFFFF" d="M67.357,22.9c0.91,2.066,1.499,5.498,0.619,8.012c3.598,3.07,4.834,10.537,3.098,16.639
	c5.127,0.393,11.234-0.188,15.176,1.387c-3.686-0.475-8.718-1.404-13.471-1.08c-0.901,0.061-2.235-0.035-2.17,1.232
	c5.502,0.432,10.97,0.902,15.487,2.312c-4.479-0.732-9.92-1.846-15.487-2.002c-2.3,4.539-6.929,6.77-13.317,7.238
	c0.687,1.494,2.002,2.064,2.324,4.469c0.479,3.59-0.751,8.852,0.461,11.246c0.582,1.146,1.53,1.176,2.17,2.158
	c-1.564,1.852-5.444-0.209-5.887-2.158c-0.757-3.342,1.153-8.52-0.929-10.785c0.147,3.645-0.861,8.762,0.155,12.016
	c0.401,1.281,1.558,1.775,1.24,2.93c-7.273,0.738-4.235-9.414-5.423-15.406c-1.097,0.076-0.616,1.643-0.619,2.311
	c-0.032,5.852,1.197,13.879-5.11,13.096c-0.185-1.23,0.846-1.648,1.238-2.771c1.151-3.293-0.216-8.199,0.313-12.174
	c-2.408,1.814,0.252,8.152-1.24,11.4c-0.86,1.869-3.629,2.684-5.73,1.848c0.273-1.391,1.712-1.166,2.321-2.463
	c0.852-1.809,0.006-4.414,0.311-7.088c-4.457,0.891-7.913-0.129-9.604-2.928c-0.757-1.256-0.945-2.736-1.859-3.85
	c-0.91-1.113-2.364-1.264-2.786-2.771c5.519-1.328,5.73,5.678,10.687,5.852c1.519,0.055,2.309-0.439,3.716-0.77
	c0.393-1.766,1.236-3.084,2.478-4.008c-6.166-0.844-11.26-2.764-13.628-7.391c-5.607,0.275-10.737,1.023-15.489,2.154
	c4.312-1.566,9.632-2.127,15.333-2.311c-0.335-2.02-3.281-1.465-5.11-1.387c-3.398,0.15-7.676,0.572-10.377,1.08
	c3.917-1.396,9.41-1.223,14.714-1.232c-1.623-5.088-1.061-13.168,2.478-16.178c-1.002-2.525-0.691-6.66,0.62-8.627
	c3.95,0.176,6.346,1.898,8.828,3.543c3.078-0.875,6.313-1.311,10.53-1.078c1.774,0.098,3.619,0.895,4.954,0.77
	c1.312-0.123,2.756-1.594,4.027-2.156C64.06,23.248,65.461,22.969,67.357,22.9z"/>
</svg>
